<mxfile host="app.diagrams.net" modified="2024-06-07T08:36:46.485Z" agent="Mozilla/5.0 (Macintosh; Intel Mac OS X 10_15_7) AppleWebKit/537.36 (KHTML, like Gecko) Chrome/125.0.0.0 Safari/537.36" etag="zA7OjIt8oVf2iFLeGxqw" version="24.5.1" type="device">
  <diagram name="Page-1" id="WGgORMg6NdqERMlUfzBg">
    <mxGraphModel dx="1327" dy="851" grid="1" gridSize="10" guides="1" tooltips="1" connect="1" arrows="1" fold="1" page="1" pageScale="1" pageWidth="850" pageHeight="1100" math="0" shadow="0">
      <root>
        <mxCell id="0" />
        <mxCell id="1" parent="0" />
        <mxCell id="R3vQ-dplxNVHq6SxOG7S-4" style="edgeStyle=orthogonalEdgeStyle;rounded=0;orthogonalLoop=1;jettySize=auto;html=1;exitX=1;exitY=1;exitDx=0;exitDy=0;entryX=0.5;entryY=0;entryDx=0;entryDy=0;" edge="1" parent="1" source="R3vQ-dplxNVHq6SxOG7S-1" target="R3vQ-dplxNVHq6SxOG7S-2">
          <mxGeometry relative="1" as="geometry" />
        </mxCell>
        <mxCell id="R3vQ-dplxNVHq6SxOG7S-5" value="0" style="edgeLabel;html=1;align=center;verticalAlign=middle;resizable=0;points=[];" vertex="1" connectable="0" parent="R3vQ-dplxNVHq6SxOG7S-4">
          <mxGeometry x="0.0742" relative="1" as="geometry">
            <mxPoint as="offset" />
          </mxGeometry>
        </mxCell>
        <mxCell id="R3vQ-dplxNVHq6SxOG7S-6" style="edgeStyle=orthogonalEdgeStyle;rounded=0;orthogonalLoop=1;jettySize=auto;html=1;exitX=0;exitY=1;exitDx=0;exitDy=0;entryX=0.5;entryY=0;entryDx=0;entryDy=0;" edge="1" parent="1" source="R3vQ-dplxNVHq6SxOG7S-1" target="R3vQ-dplxNVHq6SxOG7S-3">
          <mxGeometry relative="1" as="geometry" />
        </mxCell>
        <mxCell id="R3vQ-dplxNVHq6SxOG7S-7" value="1" style="edgeLabel;html=1;align=center;verticalAlign=middle;resizable=0;points=[];" vertex="1" connectable="0" parent="R3vQ-dplxNVHq6SxOG7S-6">
          <mxGeometry x="0.0546" relative="1" as="geometry">
            <mxPoint as="offset" />
          </mxGeometry>
        </mxCell>
        <mxCell id="R3vQ-dplxNVHq6SxOG7S-1" value="A" style="ellipse;whiteSpace=wrap;html=1;aspect=fixed;" vertex="1" parent="1">
          <mxGeometry x="400" y="20" width="40" height="40" as="geometry" />
        </mxCell>
        <mxCell id="R3vQ-dplxNVHq6SxOG7S-2" value="B" style="ellipse;whiteSpace=wrap;html=1;aspect=fixed;" vertex="1" parent="1">
          <mxGeometry x="660" y="100" width="40" height="40" as="geometry" />
        </mxCell>
        <mxCell id="R3vQ-dplxNVHq6SxOG7S-3" value="B" style="ellipse;whiteSpace=wrap;html=1;aspect=fixed;" vertex="1" parent="1">
          <mxGeometry x="200" y="100" width="40" height="40" as="geometry" />
        </mxCell>
        <mxCell id="R3vQ-dplxNVHq6SxOG7S-8" style="edgeStyle=orthogonalEdgeStyle;rounded=0;orthogonalLoop=1;jettySize=auto;html=1;exitX=1;exitY=1;exitDx=0;exitDy=0;entryX=0.5;entryY=0;entryDx=0;entryDy=0;" edge="1" parent="1" source="R3vQ-dplxNVHq6SxOG7S-3" target="R3vQ-dplxNVHq6SxOG7S-13">
          <mxGeometry relative="1" as="geometry">
            <mxPoint x="304.14213562373106" y="184.14213562373095" as="sourcePoint" />
          </mxGeometry>
        </mxCell>
        <mxCell id="R3vQ-dplxNVHq6SxOG7S-9" value="0" style="edgeLabel;html=1;align=center;verticalAlign=middle;resizable=0;points=[];" vertex="1" connectable="0" parent="R3vQ-dplxNVHq6SxOG7S-8">
          <mxGeometry x="0.0742" relative="1" as="geometry">
            <mxPoint as="offset" />
          </mxGeometry>
        </mxCell>
        <mxCell id="R3vQ-dplxNVHq6SxOG7S-10" style="edgeStyle=orthogonalEdgeStyle;rounded=0;orthogonalLoop=1;jettySize=auto;html=1;exitX=0;exitY=1;exitDx=0;exitDy=0;entryX=0.5;entryY=0;entryDx=0;entryDy=0;" edge="1" parent="1" source="R3vQ-dplxNVHq6SxOG7S-3" target="R3vQ-dplxNVHq6SxOG7S-14">
          <mxGeometry relative="1" as="geometry">
            <mxPoint x="275.85786437626894" y="184.14213562373095" as="sourcePoint" />
          </mxGeometry>
        </mxCell>
        <mxCell id="R3vQ-dplxNVHq6SxOG7S-11" value="1" style="edgeLabel;html=1;align=center;verticalAlign=middle;resizable=0;points=[];" vertex="1" connectable="0" parent="R3vQ-dplxNVHq6SxOG7S-10">
          <mxGeometry x="0.0546" relative="1" as="geometry">
            <mxPoint as="offset" />
          </mxGeometry>
        </mxCell>
        <mxCell id="R3vQ-dplxNVHq6SxOG7S-13" value="C" style="ellipse;whiteSpace=wrap;html=1;aspect=fixed;" vertex="1" parent="1">
          <mxGeometry x="300" y="160" width="40" height="40" as="geometry" />
        </mxCell>
        <mxCell id="R3vQ-dplxNVHq6SxOG7S-14" value="C" style="ellipse;whiteSpace=wrap;html=1;aspect=fixed;" vertex="1" parent="1">
          <mxGeometry x="100" y="160" width="40" height="40" as="geometry" />
        </mxCell>
        <mxCell id="R3vQ-dplxNVHq6SxOG7S-15" style="edgeStyle=orthogonalEdgeStyle;rounded=0;orthogonalLoop=1;jettySize=auto;html=1;exitX=1;exitY=1;exitDx=0;exitDy=0;entryX=0.5;entryY=0;entryDx=0;entryDy=0;" edge="1" parent="1" target="R3vQ-dplxNVHq6SxOG7S-19" source="R3vQ-dplxNVHq6SxOG7S-2">
          <mxGeometry relative="1" as="geometry">
            <mxPoint x="694" y="134" as="sourcePoint" />
          </mxGeometry>
        </mxCell>
        <mxCell id="R3vQ-dplxNVHq6SxOG7S-16" value="0" style="edgeLabel;html=1;align=center;verticalAlign=middle;resizable=0;points=[];" vertex="1" connectable="0" parent="R3vQ-dplxNVHq6SxOG7S-15">
          <mxGeometry x="0.0742" relative="1" as="geometry">
            <mxPoint as="offset" />
          </mxGeometry>
        </mxCell>
        <mxCell id="R3vQ-dplxNVHq6SxOG7S-17" style="edgeStyle=orthogonalEdgeStyle;rounded=0;orthogonalLoop=1;jettySize=auto;html=1;exitX=0;exitY=1;exitDx=0;exitDy=0;entryX=0.5;entryY=0;entryDx=0;entryDy=0;" edge="1" parent="1" target="R3vQ-dplxNVHq6SxOG7S-20" source="R3vQ-dplxNVHq6SxOG7S-2">
          <mxGeometry relative="1" as="geometry">
            <mxPoint x="666" y="134" as="sourcePoint" />
            <mxPoint x="594" y="166" as="targetPoint" />
          </mxGeometry>
        </mxCell>
        <mxCell id="R3vQ-dplxNVHq6SxOG7S-18" value="1" style="edgeLabel;html=1;align=center;verticalAlign=middle;resizable=0;points=[];" vertex="1" connectable="0" parent="R3vQ-dplxNVHq6SxOG7S-17">
          <mxGeometry x="0.0546" relative="1" as="geometry">
            <mxPoint as="offset" />
          </mxGeometry>
        </mxCell>
        <mxCell id="R3vQ-dplxNVHq6SxOG7S-19" value="C" style="ellipse;whiteSpace=wrap;html=1;aspect=fixed;" vertex="1" parent="1">
          <mxGeometry x="760" y="160" width="40" height="40" as="geometry" />
        </mxCell>
        <mxCell id="R3vQ-dplxNVHq6SxOG7S-20" value="C" style="ellipse;whiteSpace=wrap;html=1;aspect=fixed;" vertex="1" parent="1">
          <mxGeometry x="560" y="160" width="40" height="40" as="geometry" />
        </mxCell>
        <mxCell id="R3vQ-dplxNVHq6SxOG7S-21" style="edgeStyle=orthogonalEdgeStyle;rounded=0;orthogonalLoop=1;jettySize=auto;html=1;exitX=1;exitY=1;exitDx=0;exitDy=0;entryX=0.5;entryY=0;entryDx=0;entryDy=0;" edge="1" parent="1" target="R3vQ-dplxNVHq6SxOG7S-25">
          <mxGeometry relative="1" as="geometry">
            <mxPoint x="794" y="194" as="sourcePoint" />
          </mxGeometry>
        </mxCell>
        <mxCell id="R3vQ-dplxNVHq6SxOG7S-22" value="0" style="edgeLabel;html=1;align=center;verticalAlign=middle;resizable=0;points=[];" vertex="1" connectable="0" parent="R3vQ-dplxNVHq6SxOG7S-21">
          <mxGeometry x="0.0742" relative="1" as="geometry">
            <mxPoint as="offset" />
          </mxGeometry>
        </mxCell>
        <mxCell id="R3vQ-dplxNVHq6SxOG7S-23" style="edgeStyle=orthogonalEdgeStyle;rounded=0;orthogonalLoop=1;jettySize=auto;html=1;exitX=0;exitY=1;exitDx=0;exitDy=0;entryX=0.5;entryY=0;entryDx=0;entryDy=0;" edge="1" parent="1" source="R3vQ-dplxNVHq6SxOG7S-19">
          <mxGeometry relative="1" as="geometry">
            <mxPoint x="766" y="194" as="sourcePoint" />
            <mxPoint x="680" y="220" as="targetPoint" />
          </mxGeometry>
        </mxCell>
        <mxCell id="R3vQ-dplxNVHq6SxOG7S-24" value="1" style="edgeLabel;html=1;align=center;verticalAlign=middle;resizable=0;points=[];" vertex="1" connectable="0" parent="R3vQ-dplxNVHq6SxOG7S-23">
          <mxGeometry x="0.0546" relative="1" as="geometry">
            <mxPoint as="offset" />
          </mxGeometry>
        </mxCell>
        <mxCell id="R3vQ-dplxNVHq6SxOG7S-25" value="D" style="ellipse;whiteSpace=wrap;html=1;aspect=fixed;" vertex="1" parent="1">
          <mxGeometry x="1010" y="220" width="40" height="40" as="geometry" />
        </mxCell>
        <mxCell id="R3vQ-dplxNVHq6SxOG7S-27" style="edgeStyle=orthogonalEdgeStyle;rounded=0;orthogonalLoop=1;jettySize=auto;html=1;exitX=1;exitY=1;exitDx=0;exitDy=0;entryX=0.5;entryY=0;entryDx=0;entryDy=0;" edge="1" parent="1" target="R3vQ-dplxNVHq6SxOG7S-31" source="R3vQ-dplxNVHq6SxOG7S-25">
          <mxGeometry relative="1" as="geometry">
            <mxPoint x="1044" y="255" as="sourcePoint" />
          </mxGeometry>
        </mxCell>
        <mxCell id="R3vQ-dplxNVHq6SxOG7S-28" value="0" style="edgeLabel;html=1;align=center;verticalAlign=middle;resizable=0;points=[];" vertex="1" connectable="0" parent="R3vQ-dplxNVHq6SxOG7S-27">
          <mxGeometry x="0.0742" relative="1" as="geometry">
            <mxPoint as="offset" />
          </mxGeometry>
        </mxCell>
        <mxCell id="R3vQ-dplxNVHq6SxOG7S-29" style="edgeStyle=orthogonalEdgeStyle;rounded=0;orthogonalLoop=1;jettySize=auto;html=1;exitX=0;exitY=1;exitDx=0;exitDy=0;" edge="1" parent="1" source="R3vQ-dplxNVHq6SxOG7S-25">
          <mxGeometry relative="1" as="geometry">
            <mxPoint x="1016" y="255" as="sourcePoint" />
            <mxPoint x="930" y="320" as="targetPoint" />
          </mxGeometry>
        </mxCell>
        <mxCell id="R3vQ-dplxNVHq6SxOG7S-30" value="1" style="edgeLabel;html=1;align=center;verticalAlign=middle;resizable=0;points=[];" vertex="1" connectable="0" parent="R3vQ-dplxNVHq6SxOG7S-29">
          <mxGeometry x="0.0546" relative="1" as="geometry">
            <mxPoint as="offset" />
          </mxGeometry>
        </mxCell>
        <mxCell id="R3vQ-dplxNVHq6SxOG7S-31" value="E" style="ellipse;whiteSpace=wrap;html=1;aspect=fixed;" vertex="1" parent="1">
          <mxGeometry x="1190" y="281" width="40" height="40" as="geometry" />
        </mxCell>
        <mxCell id="R3vQ-dplxNVHq6SxOG7S-33" style="edgeStyle=orthogonalEdgeStyle;rounded=0;orthogonalLoop=1;jettySize=auto;html=1;exitX=1;exitY=1;exitDx=0;exitDy=0;entryX=0.5;entryY=0;entryDx=0;entryDy=0;" edge="1" parent="1" target="R3vQ-dplxNVHq6SxOG7S-37" source="R3vQ-dplxNVHq6SxOG7S-31">
          <mxGeometry relative="1" as="geometry">
            <mxPoint x="1224" y="315" as="sourcePoint" />
          </mxGeometry>
        </mxCell>
        <mxCell id="R3vQ-dplxNVHq6SxOG7S-34" value="0" style="edgeLabel;html=1;align=center;verticalAlign=middle;resizable=0;points=[];" vertex="1" connectable="0" parent="R3vQ-dplxNVHq6SxOG7S-33">
          <mxGeometry x="0.0742" relative="1" as="geometry">
            <mxPoint as="offset" />
          </mxGeometry>
        </mxCell>
        <mxCell id="R3vQ-dplxNVHq6SxOG7S-35" style="edgeStyle=orthogonalEdgeStyle;rounded=0;orthogonalLoop=1;jettySize=auto;html=1;exitX=0;exitY=1;exitDx=0;exitDy=0;entryX=0.5;entryY=0;entryDx=0;entryDy=0;" edge="1" parent="1" target="R3vQ-dplxNVHq6SxOG7S-38" source="R3vQ-dplxNVHq6SxOG7S-31">
          <mxGeometry relative="1" as="geometry">
            <mxPoint x="1196" y="315" as="sourcePoint" />
            <mxPoint x="1124" y="347" as="targetPoint" />
          </mxGeometry>
        </mxCell>
        <mxCell id="R3vQ-dplxNVHq6SxOG7S-36" value="1" style="edgeLabel;html=1;align=center;verticalAlign=middle;resizable=0;points=[];" vertex="1" connectable="0" parent="R3vQ-dplxNVHq6SxOG7S-35">
          <mxGeometry x="0.0546" relative="1" as="geometry">
            <mxPoint as="offset" />
          </mxGeometry>
        </mxCell>
        <mxCell id="R3vQ-dplxNVHq6SxOG7S-37" value="F" style="ellipse;whiteSpace=wrap;html=1;aspect=fixed;" vertex="1" parent="1">
          <mxGeometry x="1290" y="341" width="40" height="40" as="geometry" />
        </mxCell>
        <mxCell id="R3vQ-dplxNVHq6SxOG7S-38" value="F" style="ellipse;whiteSpace=wrap;html=1;aspect=fixed;" vertex="1" parent="1">
          <mxGeometry x="1090" y="341" width="40" height="40" as="geometry" />
        </mxCell>
        <mxCell id="R3vQ-dplxNVHq6SxOG7S-39" value="E" style="ellipse;whiteSpace=wrap;html=1;aspect=fixed;" vertex="1" parent="1">
          <mxGeometry x="910" y="281" width="40" height="40" as="geometry" />
        </mxCell>
        <mxCell id="R3vQ-dplxNVHq6SxOG7S-40" style="edgeStyle=orthogonalEdgeStyle;rounded=0;orthogonalLoop=1;jettySize=auto;html=1;exitX=1;exitY=1;exitDx=0;exitDy=0;entryX=0.5;entryY=0;entryDx=0;entryDy=0;" edge="1" parent="1" source="R3vQ-dplxNVHq6SxOG7S-39" target="R3vQ-dplxNVHq6SxOG7S-44">
          <mxGeometry relative="1" as="geometry">
            <mxPoint x="944" y="315" as="sourcePoint" />
          </mxGeometry>
        </mxCell>
        <mxCell id="R3vQ-dplxNVHq6SxOG7S-41" value="0" style="edgeLabel;html=1;align=center;verticalAlign=middle;resizable=0;points=[];" vertex="1" connectable="0" parent="R3vQ-dplxNVHq6SxOG7S-40">
          <mxGeometry x="0.0742" relative="1" as="geometry">
            <mxPoint as="offset" />
          </mxGeometry>
        </mxCell>
        <mxCell id="R3vQ-dplxNVHq6SxOG7S-42" style="edgeStyle=orthogonalEdgeStyle;rounded=0;orthogonalLoop=1;jettySize=auto;html=1;exitX=0;exitY=1;exitDx=0;exitDy=0;entryX=0.5;entryY=0;entryDx=0;entryDy=0;" edge="1" parent="1" source="R3vQ-dplxNVHq6SxOG7S-39" target="R3vQ-dplxNVHq6SxOG7S-45">
          <mxGeometry relative="1" as="geometry">
            <mxPoint x="916" y="315" as="sourcePoint" />
            <mxPoint x="844" y="347" as="targetPoint" />
          </mxGeometry>
        </mxCell>
        <mxCell id="R3vQ-dplxNVHq6SxOG7S-43" value="1" style="edgeLabel;html=1;align=center;verticalAlign=middle;resizable=0;points=[];" vertex="1" connectable="0" parent="R3vQ-dplxNVHq6SxOG7S-42">
          <mxGeometry x="0.0546" relative="1" as="geometry">
            <mxPoint as="offset" />
          </mxGeometry>
        </mxCell>
        <mxCell id="R3vQ-dplxNVHq6SxOG7S-44" value="F" style="ellipse;whiteSpace=wrap;html=1;aspect=fixed;" vertex="1" parent="1">
          <mxGeometry x="1010" y="341" width="40" height="40" as="geometry" />
        </mxCell>
        <mxCell id="R3vQ-dplxNVHq6SxOG7S-45" value="F" style="ellipse;whiteSpace=wrap;html=1;aspect=fixed;" vertex="1" parent="1">
          <mxGeometry x="810" y="341" width="40" height="40" as="geometry" />
        </mxCell>
      </root>
    </mxGraphModel>
  </diagram>
</mxfile>
